<svg xmlns="http://www.w3.org/2000/svg" width="50" height="50"><style>.a{fill:#2F4F4F;stroke:gray;}</style><title>  Layer 1</title><title>  Layer 1</title><g stroke="cadetblue" stroke-width="0.5"><path d="m10 4.1c0.4 0 0.7 0 1.1 0 0 13.8 0 27.5 0 41.3 -0.4 0-0.7 0-1.1 0 -0.1-4.6 0.1-9.2-0.1-13.7 0-7.4 0-14.7 0-22.1 0-1.8 0-3.6 0.1-5.5z"/><path d="m14.4 4.1c0.4 0 0.7 0 1.1 0 0 6.9-0.1 13.9 0.1 20.8 -0.1 6.8 0 13.7-0.1 20.5 -0.4 0-0.7 0-1.1-0.1 0-13.7 0-27.5 0-41.2z" class="a"/><path d="m18.9 4.1c0.4 0 0.7 0 1.1 0 0.1 12.2 0 24.4 0 36.7 0 1.5 0 3.1-0.1 4.6 -0.4 0-0.7 0-1.1-0.1 0-10.9 0-21.8 0-32.7 0.1-2.9 0.1-5.7 0.1-8.6z" class="a"/><path d="m36.4 6.8c1.2-0.9 2.4-1.9 3.7-2.6 -0.1 0.7-0.2 1.6-0.9 2 -4.7 3.5-9.4 7.1-14.1 10.6 -0.7 0.5-1.4 0.9-2.1 1.3 0.1-0.7 0.3-1.5 0.9-2 4.1-3.1 8.3-6.3 12.5-9.4z" class="a"/><path d="m36.2 12.5c1.3-1 2.5-2 3.9-2.8 -0.1 0.7-0.2 1.5-0.9 2 -4.4 3.3-8.8 6.5-13.1 9.8 -1 0.8-2 1.6-3.2 2.1 0.1-0.5 0-1.1 0.4-1.5 0.6-0.7 1.4-1.2 2.2-1.7 3.5-2.6 7-5.3 10.6-7.9z" class="a"/><path d="m26.6 25.3c4.5-3.3 8.9-6.8 13.5-9.9 -0.1 0.7-0.1 1.5-0.7 1.9 -3.4 2.6-7 5-10.2 7.8 3.3 2.6 6.7 5.1 10.1 7.6 0.7 0.4 0.8 1.2 0.9 2 -0.7-0.4-1.4-0.8-2.1-1.3 -3.3-2.5-6.6-5-10-7.5 -0.9 0.6-1.7 1.3-2.5 2 1.5 1.4 3.3 2.5 4.9 3.8 3 2.2 6 4.4 8.9 6.7 0.6 0.4 0.7 1.2 0.8 1.9 -1.7-0.8-3-2-4.5-3.1 -3.7-2.7-7.2-5.6-11-8.1 -0.2 1.1-0.5 2.2 0 3.3 0.6 1.5 2 2.4 3.2 3.3 3.8 2.8 7.6 5.7 11.5 8.6 0.7 0.4 0.7 1.2 0.8 1.9 -1.8-0.9-3.3-2.3-5-3.5 -3.1-2.4-6.4-4.7-9.5-7.1 -1.7-1.2-2.8-3.3-2.5-5.4 0.3-2 1.9-3.4 3.4-4.6z" class="a"/></g></svg>
